<?xml version="1.0" standalone="no"?>
<!DOCTYPE svg PUBLIC "-//W3C//DTD SVG 20010904//EN"
 "http://www.w3.org/TR/2001/REC-SVG-20010904/DTD/svg10.dtd">
<svg version="1.0" xmlns="http://www.w3.org/2000/svg"
 width="500.000000pt" height="375.000000pt" viewBox="0 0 500.000000 375.000000"
 preserveAspectRatio="xMidYMid meet">

<g transform="translate(0.000000,375.000000) scale(0.100000,-0.100000)"
fill="#000000" stroke="none">
<path d="M0 1875 l0 -1875 2500 0 2500 0 0 1875 0 1875 -2500 0 -2500 0 0
-1875z m3640 45 l0 -1470 -1205 0 -1205 0 0 1470 0 1470 1205 0 1205 0 0
-1470z"/>
<path d="M1438 2823 c-2 -192 -2 -473 0 -625 l3 -278 999 0 1000 0 0 625 0
625 -305 0 -305 0 0 -340 0 -340 -390 0 -390 0 0 340 0 340 -305 0 -304 0 -3
-347z"/>
<path d="M1440 1030 l0 -360 305 0 305 0 0 360 0 360 -305 0 -305 0 0 -360z"/>
<path d="M2830 1030 l0 -360 305 0 305 0 0 360 0 360 -305 0 -305 0 0 -360z"/>
</g>
</svg>
